# xmcd
#
# Track frame offsets:
#	150
#	22690
#	37685
#	57153
#	70506
#	88442
#	99606
#	112788
#	128077
#	141416
#	159827
#	173586
#
# Disc length: 2569 seconds
#
# Revision: 0
# Processed by: cddbd v1.5.1PL2 Copyright (c) Steve Scherf et al.
# Submitted via: dBpowerAMP V4.0
#
DISCID=890a070c
DTITLE=Andy Leek - Eternity Beckons
DYEAR=1900
DGENRE=Balada
TTITLE0=Apples On The Bough
TTITLE1=Forgotten People
TTITLE2=Natural Beauty
TTITLE3=So Blind
TTITLE4=Sunshine
TTITLE5=Twistin´ Turnin´
TTITLE6=Natalie
TTITLE7=Every Country
TTITLE8=Children Of The Sun
TTITLE9=All Around The World
TTITLE10=With You Tonight
TTITLE11=It Must Be Love
EXTD=
EXTT0=
EXTT1=
EXTT2=
EXTT3=
EXTT4=
EXTT5=
EXTT6=
EXTT7=
EXTT8=
EXTT9=
EXTT10=
EXTT11=
PLAYORDER=
